//  ***** YM/FM Soundfont v0.06 WIP - FM Drums *****
//  Soundfont converted using sfZed [2021-01-24]
//  SoundFont version 2.0
//  EMU8000
//  Copyright (C) 2003 MaliceX
//  Created 2003-11-12
//  Using Audio Compositor 4.5


<region>
sample=FM Agogo.wav
lokey=d4
hikey=d4
pitch_keycenter=a2
ampeg_decay=0.255
ampeg_sustain=4

<region>
sample="FM Agogo.wav"
key=c#4
pitch_keycenter=c#4
ampeg_decay=0.313
ampeg_sustain=4
ampeg_release=3

<region>
sample=FM Agogo.wav
lokey=c4
hikey=c4
pitch_keycenter=f3
ampeg_decay=0.313
ampeg_sustain=4
ampeg_release=3

<region>
sample="FM Bongos.wav"
lokey=d4
hikey=d4
loop_mode=loop_continuous
pitch_keycenter=g#2
ampeg_decay=0.255
ampeg_sustain=4

<region>
sample=./FM Bongos.wav
lokey=e4
hikey=e4
loop_mode=loop_continuous
pitch_keycenter=f#6
ampeg_decay=3.125
ampeg_sustain=4
ampeg_release=3

<region>
sample=FM Bongos.wav
lokey=d#4
hikey=d#4
loop_mode=loop_continuous
pitch_keycenter=g#4
ampeg_decay=3.125
ampeg_sustain=4
ampeg_release=3

<region>
sample=FM clap.wav
lokey=d#2
hikey=d#2
pitch_keycenter=d#2
ampeg_release=7

<region>
sample=FMCowbell.wav
lokey=g#4
hikey=g#4
pitch_keycenter=c#6
ampeg_decay=1.042
ampeg_sustain=4
ampeg_release=2

<region>
sample=FMCowbell.wav
lokey=g4
hikey=g4
pitch_keycenter=g5
ampeg_decay=1.042
ampeg_sustain=4
ampeg_release=2

<region>
sample=FM Cymbal.wav
lokey=e3
hikey=e3
pitch_keycenter=g4
ampeg_decay=30
ampeg_sustain=99
ampeg_release=2.750

<region>
sample=FM Cymbal.wav
lokey=c#3
hikey=c#3
pitch_keycenter=a3
ampeg_decay=30
ampeg_sustain=99
ampeg_release=2.750

<region>
sample=FM Cymbal.wav
lokey=g3
hikey=g3
pitch_keycenter=c#4
ampeg_decay=30
ampeg_sustain=99
ampeg_release=2.750

<region>
sample="FM Cymbal.wav"
lokey=a3
hikey=a3
pitch_keycenter=g#4
ampeg_decay=30
ampeg_sustain=99
ampeg_release=2.750

<region>
sample="../malicex_sfz/FMCymTap.wav"
lokey=b5
hikey=b5
pitch_keycenter=f#7
ampeg_attack=0.038
ampeg_decay=5.290
ampeg_sustain=44
ampeg_release=2.500

<region>
sample=FMCymTap.wav
lokey=b5
hikey=b5
tune=-10
pitch_keycenter=f#7
ampeg_attack=0.038
ampeg_decay=5.290
ampeg_sustain=44
ampeg_release=2.500

<region>
sample="FMCymTap.wav"
lokey=b5
hikey=b5
tune=10
pitch_keycenter=f#7
ampeg_attack=0.038
ampeg_decay=5.290
ampeg_sustain=44
ampeg_release=2.500

<region>
sample=FMCymTap.wav
lokey=d#3
hikey=d#3
pitch_keycenter=d#3
ampeg_decay=2.380
ampeg_sustain=58
ampeg_release=2

<region>
sample="FMCymTap.wav"
lokey=b3
hikey=b3
pitch_keycenter=f#3
ampeg_decay=2.380
ampeg_sustain=58
ampeg_release=2

<region>
sample=FMCymTap.wav
lokey=f3
hikey=f3
pitch_keycenter=d3
ampeg_decay=2.380
ampeg_sustain=58
ampeg_release=2

<region>
sample=FMHawaiDrum.wav
lokey=f#4
hikey=f#4
loop_mode=loop_continuous
pitch_keycenter=g#5
ampeg_decay=1.042
ampeg_sustain=4
ampeg_release=2

<region>
sample=FMHawaiDrum.wav
lokey=f4
hikey=f4
loop_mode=loop_continuous
pitch_keycenter=c5
ampeg_decay=1.042
ampeg_sustain=4
ampeg_release=2

<region>
sample=FMKick.wav
lokey=c2
hikey=c2
pitch_keycenter=c2
ampeg_release=2

<region>
sample=FM Kick2.wav
lokey=b1
hikey=b1
pitch_keycenter=c2
ampeg_release=2.500

<region>
sample="FMrim.wav"
lokey=b5
hikey=b5
tune=10
pitch_keycenter=f#6
ampeg_attack=0.038
ampeg_decay=5.290
ampeg_sustain=44
ampeg_release=2.500

<region>
sample=".\../malicex_sfz\FMrim.wav"
lokey=f#2
hikey=f#2
pitch_keycenter=f#2
ampeg_decay=0.570
ampeg_sustain=4

<region>
sample="FMrim.wav"
lokey=g#2
hikey=g#2
pitch_keycenter=a2
ampeg_decay=0.402
ampeg_sustain=4

<region>
sample=FMrim.wav
lokey=a#2
hikey=a#2
pitch_keycenter=a#2
ampeg_decay=0.816
ampeg_sustain=4
ampeg_release=2.500

<region>
sample=FMrim.wav
lokey=a4
hikey=a4
pitch_keycenter=c2
ampeg_attack=0.017
ampeg_decay=0.295
ampeg_sustain=4
ampeg_release=0.500

<region>
sample=FMSnare2.wav
lokey=e2
hikey=e2
pitch_keycenter=f2
ampeg_release=2

<region>
sample=FM Snare.wav
lokey=d2
hikey=d2
pitch_keycenter=d2
ampeg_release=2

<region>
sample=FM Tap.wav
lokey=c#2
hikey=c#2
pitch_keycenter=d#3
ampeg_decay=0.313
ampeg_sustain=4

<region>
sample=FMtom.wav
lokey=f2
hikey=f2
pitch_keycenter=b3
ampeg_decay=2.234
ampeg_sustain=69
ampeg_release=1.500

<region>
sample=FMtom.wav
lokey=g2
hikey=g2
pitch_keycenter=a3
ampeg_decay=2.234
ampeg_sustain=69
ampeg_release=1.500

<region>
sample=FMtom.wav
lokey=a2
hikey=a2
pitch_keycenter=g3
ampeg_decay=2.234
ampeg_sustain=69
ampeg_release=1.500

<region>
sample=FMtom.wav
lokey=b2
hikey=b2
pitch_keycenter=f3
ampeg_decay=2.234
ampeg_sustain=69
ampeg_release=1.500

<region>
sample=FMtom.wav
lokey=c3
hikey=c3
pitch_keycenter=d#3
ampeg_decay=2.234
ampeg_sustain=69
ampeg_release=1.500

<region>
sample=FMtom.wav
lokey=d3
hikey=d3
pitch_keycenter=c#3
ampeg_decay=2.234
ampeg_sustain=69
ampeg_release=1.500

<region>
sample="..\malicex_sfz\i has space\Vibphone.wav"
lokey=g#5
hikey=g#5
loop_mode=loop_continuous
pitch_keycenter=f#4
ampeg_decay=0.220
ampeg_sustain=4
ampeg_release=0.500

<region>
sample=i has space\Vibphone.wav
lokey=a5
hikey=a5
loop_mode=loop_continuous
pitch_keycenter=g4
ampeg_decay=2.714
ampeg_sustain=4
ampeg_release=2

